<svg width="3224" height="2604" viewBox="0 0 3224 2604" fill="none" xmlns="http://www.w3.org/2000/svg">
<path d="M2167.2 76L2365.1 267L2564 1343.7H698.3L2167.2 76Z" fill="#FFCF2D"/>
<path d="M2366.8 265.5L2168.3 73.9L2201.5 39.4C2250.4 -11.4 2338.5 -5.60003 2389.3 43.2C2440.1 92.1 2449 180.2 2400.1 231L2366.8 265.5Z" fill="white" stroke="#FFCF2D" stroke-width="6" stroke-miterlimit="10" stroke-linecap="round"/>
<path d="M2400 231L2201.4 39.3999" stroke="#FFCF2D" stroke-width="6" stroke-miterlimit="10" stroke-linecap="round"/>
<path d="M2400.2 51.9L2422.4 34.9C2452.2 12.1 2495 18.1 2517.3 48.4L3062.9 712.6L2783.6 1335.5" stroke="#3FB1B5" stroke-width="6" stroke-miterlimit="10" stroke-linecap="round"/>
<path d="M3054 746.5C3070.9 746.5 3084.6 732.8 3084.6 715.9C3084.6 699 3070.9 685.3 3054 685.3C3037.1 685.3 3023.4 699 3023.4 715.9C3023.4 732.8 3037.1 746.5 3054 746.5Z" fill="white" stroke="#FFCF2D" stroke-width="6" stroke-miterlimit="10" stroke-linecap="round"/>
<path d="M2706 1265.9H2855.1C2898 1265.9 2932.7 1300.7 2932.7 1343.5V1345.7H2628.3V1343.5C2628.4 1300.7 2663.1 1265.9 2706 1265.9Z" fill="white" stroke="#FFCF2D" stroke-width="6" stroke-miterlimit="10" stroke-linecap="round"/>
<path d="M1983.7 1118.6H1039.8C1004.3 1118.6 975.6 1089.9 975.6 1054.4V394.2C975.6 358.7 1004.3 330 1039.8 330H1983.7C2019.2 330 2047.9 358.7 2047.9 394.2V1054.3C2048 1089.8 2019.2 1118.6 1983.7 1118.6Z" fill="white" stroke="#3FB1B5" stroke-width="6" stroke-miterlimit="10" stroke-linecap="round"/>
<path d="M1984.3 1057.2H1049.5C1035.6 1057.2 1024.4 1045.9 1024.4 1032.1V400.5C1024.4 386.6 1035.7 375.4 1049.5 375.4H1984.3C1998.2 375.4 2009.4 386.7 2009.4 400.5V1032C2009.5 1045.9 1998.2 1057.2 1984.3 1057.2Z" fill="#66B0F0" stroke="#66B0F0" stroke-width="6" stroke-miterlimit="10" stroke-linejoin="round"/>
<path d="M1083 434.4H1068.2C1063.4 434.4 1059.4 430.5 1059.4 425.6V410.8C1059.4 406 1063.3 402 1068.2 402H1083C1087.8 402 1091.8 405.9 1091.8 410.8V425.6C1091.7 430.5 1087.8 434.4 1083 434.4Z" stroke="white" stroke-width="6" stroke-miterlimit="10" stroke-linecap="round"/>
<path d="M1150.3 434.4H1135.5C1130.7 434.4 1126.7 430.5 1126.7 425.6V410.8C1126.7 406 1130.6 402 1135.5 402H1150.3C1155.1 402 1159.1 405.9 1159.1 410.8V425.6C1159.1 430.5 1155.1 434.4 1150.3 434.4Z" stroke="white" stroke-width="6" stroke-miterlimit="10" stroke-linecap="round"/>
<path d="M1217.6 434.4H1202.8C1198 434.4 1194 430.5 1194 425.6V410.8C1194 406 1197.9 402 1202.8 402H1217.6C1222.4 402 1226.4 405.9 1226.4 410.8V425.6C1226.4 430.5 1222.5 434.4 1217.6 434.4Z" stroke="white" stroke-width="6" stroke-miterlimit="10" stroke-linecap="round"/>
<path d="M1711 1343.7H1344.6L1416.5 1118.6H1639L1711 1343.7Z" fill="white" stroke="#3FB1B5" stroke-width="6" stroke-miterlimit="10" stroke-linecap="round"/>
<path d="M1373.4 1253.6L1416.5 1118.6H1639L1373.4 1253.6Z" fill="#3FB1B5"/>
<path d="M1929.9 582.5H1751.8C1735.1 582.5 1721.6 569 1721.6 552.3V437.3C1721.6 420.6 1735.1 407.1 1751.8 407.1H1929.9C1946.6 407.1 1960.1 420.6 1960.1 437.3V552.3C1960.1 569 1946.6 582.5 1929.9 582.5Z" stroke="white" stroke-width="6" stroke-miterlimit="10" stroke-linecap="round"/>
<path d="M1772.5 448.1H1908.4" stroke="white" stroke-width="6" stroke-miterlimit="10" stroke-linecap="round"/>
<path d="M1772.5 479.1H1908.4" stroke="white" stroke-width="6" stroke-miterlimit="10" stroke-linecap="round"/>
<path d="M1772.5 510.1H1908.4" stroke="white" stroke-width="6" stroke-miterlimit="10" stroke-linecap="round"/>
<path d="M1772.5 541.1H1908.4" stroke="white" stroke-width="6" stroke-miterlimit="10" stroke-linecap="round"/>
<path d="M1979.1 1057.2H1271.2L1229.7 1116.7C1182.8 1183.9 1083.7 1184.9 1035.5 1118.6L782.7 770.9C793.3 784.1 841.8 769.4 888 739C934.9 708.1 965.2 669.2 955.7 654.8L1131 878.2L1184.7 783.4C1199.4 758.3 1223.8 740.3 1252.2 733.7L1434.9 695H1592.4L1766 733.3C1796.2 740.2 1821.8 759.9 1836.3 787.2L1979.1 1057.2Z" fill="white" stroke="#3FB1B5" stroke-width="6" stroke-miterlimit="10"/>
<path d="M1784.8 1053.1L1734.5 953.8" stroke="#3FB1B5" stroke-width="6" stroke-miterlimit="10" stroke-linecap="round"/>
<path d="M1267.2 1062.4L1317 964.1" stroke="#3FB1B5" stroke-width="6" stroke-miterlimit="10" stroke-linecap="round"/>
<path d="M1062.8 791.5L1176.9 937.4" stroke="#3FB1B5" stroke-width="6" stroke-miterlimit="10" stroke-linecap="round"/>
<path d="M1533.3 743L1575.3 794.1L1669.3 714.3" stroke="#3FB1B5" stroke-width="6" stroke-miterlimit="10" stroke-linecap="round"/>
<path d="M1501.2 744L1460.4 796.1L1357.1 714.3" stroke="#3FB1B5" stroke-width="6" stroke-miterlimit="10" stroke-linecap="round"/>
<path d="M990.5 699.5C1000 714 969.6 753.4 922.4 784.7C876 815.5 826.8 830.3 816.1 817" stroke="#3FB1B5" stroke-width="6" stroke-miterlimit="10" stroke-linecap="round"/>
<path d="M959.1 724.8C965.341 724.8 970.4 719.741 970.4 713.5C970.4 707.259 965.341 702.2 959.1 702.2C952.859 702.2 947.8 707.259 947.8 713.5C947.8 719.741 952.859 724.8 959.1 724.8Z" stroke="#3FB1B5" stroke-width="6" stroke-miterlimit="10" stroke-linecap="round"/>
<path d="M1517.1 795.8C1523.34 795.8 1528.4 790.741 1528.4 784.5C1528.4 778.259 1523.34 773.2 1517.1 773.2C1510.86 773.2 1505.8 778.259 1505.8 784.5C1505.8 790.741 1510.86 795.8 1517.1 795.8Z" stroke="#3FB1B5" stroke-width="6" stroke-miterlimit="10" stroke-linecap="round"/>
<path d="M1517.1 886.8C1523.34 886.8 1528.4 881.741 1528.4 875.5C1528.4 869.259 1523.34 864.2 1517.1 864.2C1510.86 864.2 1505.8 869.259 1505.8 875.5C1505.8 881.741 1510.86 886.8 1517.1 886.8Z" stroke="#3FB1B5" stroke-width="6" stroke-miterlimit="10" stroke-linecap="round"/>
<path d="M1226.1 1121.5L1271.2 1057.2V1121.5H1226.1Z" fill="#3FB1B5"/>
<path d="M886.9 736C840.7 766.4 792.2 781.1 781.6 767.9C781.4 767.7 781.3 767.5 781.1 767.2C778.9 763.9 779.1 759.4 781.1 753.9C788 735.8 816.5 707.8 852.7 684C881.5 665 909.9 651.8 929.6 647.7C941 645.4 949.5 646.1 953.6 650.5L954.6 651.7C964 666.1 933.8 705.1 886.9 736Z" fill="#FE5244"/>
<path d="M886.9 736C860.6 753.3 833.5 765.6 813.1 770.4L721.8 641.6C709.1 623.6 713.3 598.7 731.4 586L813.6 528.2L767 448.9C760.2 437.4 764.1 422.5 775.7 415.8C779.5 413.6 783.6 412.6 787.7 412.6C795.6 412.6 803.4 416.5 808 423.7L953.7 650.3L954.7 651.9C964 666.1 933.8 705.1 886.9 736Z" fill="#E57281"/>
<path d="M813.4 529.1L864.3 608C869 615.4 866.9 625.2 859.5 630L848.2 637.4C840.8 642.3 830.8 640.2 826 632.8L777.9 560.8" stroke="#9A3B82" stroke-width="6" stroke-miterlimit="10" stroke-linecap="round"/>
<path d="M825.8 632.6C830.7 640.1 828.5 650.2 821 655L810.7 661.5C803.3 666.2 793.5 664.1 788.7 656.8" stroke="#9A3B82" stroke-width="6" stroke-miterlimit="10" stroke-linecap="round"/>
<path d="M741.4 586.2L788.5 656.2C793.4 663.7 791.3 673.8 783.6 678.6L774 683.9C766.8 688.5 757.3 686.6 752.3 679.6L725 641.1" stroke="#9A3B82" stroke-width="6" stroke-miterlimit="10" stroke-linecap="round"/>
<path d="M919.7 597.5L895.8 560.4C887.9 548.1 871.4 544.7 859.3 552.9L800 593.1C800 593.1 817.2 624 859 599.5L873 621.8C844.4 639.9 836.2 678 854.8 706.3L919.7 597.5Z" fill="#E57281"/>
<path d="M916.6 598.5L892.7 561.4C884.8 549.1 868.3 545.7 856.2 553.9L800 593.1C800 593.1 817.2 624 859 599.5L873 621.8C844.4 639.9 836.2 678 854.8 706.3" stroke="#9A3B82" stroke-width="6" stroke-miterlimit="10" stroke-linecap="round"/>
<path d="M886.9 736C860.6 753.3 833.5 765.6 813.1 770.4L790.4 738.4C803.1 721.8 825.8 701.8 852.7 684.1C881.5 665.1 909.9 651.9 929.6 647.8C941 645.5 949.5 646.2 953.6 650.6L954.6 651.8C954.7 652 954.8 652.1 954.9 652.3C955 652.4 955 652.5 955.1 652.7C955.2 652.9 955.3 653 955.4 653.2C962.2 668.5 932.3 706 886.9 736Z" fill="#9A3B82"/>
<path d="M1592.3 607V694.9C1592.3 720.4 1556.9 741 1513.4 741C1469.8 741 1434.5 720.4 1434.5 694.9V607H1592.3Z" fill="#E57281"/>
<path d="M1457.6 727.5C1443.3 719.2 1434.4 707.6 1434.4 694.9V607H1592.3V631.4C1592.3 656.7 1576.9 679.4 1553.5 688.9L1457.6 727.5Z" fill="#9A3B82"/>
<path d="M1636.3 601.8V603.3C1636.3 618.5 1624 630.8 1608.8 630.8H1590.7C1584.6 655.4 1562.4 673.7 1535.8 673.7H1491C1464.5 673.7 1442.2 655.5 1436.2 630.8H1418.1C1402.9 630.8 1390.6 618.5 1390.6 603.3V601.8C1390.6 586.6 1402.9 574.3 1418.1 574.3H1434.5V552.6C1434.5 529.4 1451.6 510.2 1473.9 507C1478.8 515.2 1493.6 534.8 1523.8 533.7C1538 533.2 1551.2 530.5 1562.1 527.3C1575.2 523.5 1588.3 531.5 1591.6 544C1592.1 546.8 1592.4 549.6 1592.4 552.5V574.2H1608.8C1623.9 574.2 1636.3 586.6 1636.3 601.8Z" fill="#E57281"/>
<path d="M1604.9 574.2H1592.3V550.1C1592.3 548 1592 545.9 1591.5 544C1588.2 531.5 1575.1 523.5 1562 527.3C1551.1 530.5 1538 533.2 1523.7 533.7C1493.5 534.8 1478.7 515.2 1473.8 507C1451.5 510.2 1434.4 529.4 1434.4 552.6V574.3H1418.7C1418.7 574.3 1400.7 509.2 1414.2 490.8C1427.5 472.7 1443.5 480.6 1443.5 480.6C1443.5 480.6 1433.9 426.4 1487.5 427.4C1541 428.4 1610.6 490.5 1615.7 501.9C1623.7 519.4 1604.9 574.2 1604.9 574.2Z" fill="#9A3B82"/>
<path d="M1598.4 606.9C1598.4 596.2 1607.1 587.6 1617.7 587.6" stroke="#9A3B82" stroke-width="5" stroke-miterlimit="10" stroke-linecap="round"/>
<path d="M1428.6 606.9C1428.6 596.2 1419.9 587.6 1409.3 587.6" stroke="#9A3B82" stroke-width="5" stroke-miterlimit="10" stroke-linecap="round"/>
<path d="M1567.1 552.6C1567.1 552.6 1552.9 542.2 1534.8 549.7" stroke="#9A3B82" stroke-width="5" stroke-miterlimit="10" stroke-linecap="round"/>
<path d="M1458.7 552.6C1458.7 552.6 1472.9 542.2 1491 549.7" stroke="#9A3B82" stroke-width="5" stroke-miterlimit="10" stroke-linecap="round"/>
<path d="M1538.3 626.4C1538.3 626.4 1530.6 643 1507 634.3" stroke="#9A3B82" stroke-width="5" stroke-miterlimit="10" stroke-linecap="round"/>
<path d="M1505.9 617.8C1512 618.2 1521.3 617.8 1521.3 617.8" stroke="#9A3B82" stroke-width="5" stroke-miterlimit="10" stroke-linecap="round"/>
<path d="M1551 594.3C1553.76 594.3 1556 590.539 1556 585.9C1556 581.261 1553.76 577.5 1551 577.5C1548.24 577.5 1546 581.261 1546 585.9C1546 590.539 1548.24 594.3 1551 594.3Z" fill="#9A3B82"/>
<path d="M1479.3 594.3C1482.06 594.3 1484.3 590.539 1484.3 585.9C1484.3 581.261 1482.06 577.5 1479.3 577.5C1476.54 577.5 1474.3 581.261 1474.3 585.9C1474.3 590.539 1476.54 594.3 1479.3 594.3Z" fill="#9A3B82"/>
<path d="M1491.2 614.2H1459.7C1453.6 614.2 1448.7 609.3 1448.7 603.2V571.7C1448.7 565.6 1453.6 560.7 1459.7 560.7H1491.2C1497.3 560.7 1502.2 565.6 1502.2 571.7V603.2C1502.3 609.2 1497.3 614.2 1491.2 614.2Z" stroke="white" stroke-width="5" stroke-miterlimit="10"/>
<path d="M1568.3 614.2H1536.8C1530.7 614.2 1525.8 609.3 1525.8 603.2V571.7C1525.8 565.6 1530.7 560.7 1536.8 560.7H1568.3C1574.4 560.7 1579.3 565.6 1579.3 571.7V603.2C1579.3 609.2 1574.4 614.2 1568.3 614.2Z" stroke="white" stroke-width="5" stroke-miterlimit="10"/>
<path d="M1502.3 581.5H1525.8" stroke="white" stroke-width="5" stroke-miterlimit="10"/>
<path d="M1576.6 1018.4H1467.3C1457.4 1018.4 1449.3 1010.4 1449.3 1000.4V942.3C1449.3 932.4 1457.3 924.3 1467.3 924.3H1576.6C1586.5 924.3 1594.6 932.3 1594.6 942.3V1000.4C1594.6 1010.3 1586.6 1018.4 1576.6 1018.4Z" stroke="#66B0F0" stroke-width="6" stroke-miterlimit="10" stroke-linejoin="round"/>
<path d="M1524.7 995H1487.7C1481.8 995 1477 990.2 1477 984.3V958.4C1477 952.5 1481.8 947.7 1487.7 947.7H1524.7C1530.6 947.7 1535.4 952.5 1535.4 958.4V984.3C1535.4 990.2 1530.6 995 1524.7 995Z" fill="#66B0F0"/>
<path d="M1560.7 994.3L1549.3 986.7C1546.2 984.6 1544.3 981 1544.3 977.1V965.7C1544.3 961.8 1546.2 958.2 1549.3 956.1L1560.7 948.5C1563.4 946.7 1566.9 948.7 1566.9 952.1V990.8C1567 994.1 1563.4 996.1 1560.7 994.3Z" fill="#66B0F0"/>
<path d="M3038.4 1345.7H383.7" stroke="#3FB1B5" stroke-width="6" stroke-miterlimit="10" stroke-linecap="round"/>
<path d="M1238.4 1363.2V2597.8H1168.7V2362.8C1168.7 2340.9 1150.9 2323.1 1129 2323.1H630.1C608.2 2323.1 590.4 2340.9 590.4 2362.8V2597.8H520.7V1363.2H1238.4Z" fill="white" stroke="#3FB1B5" stroke-width="6" stroke-miterlimit="10" stroke-linecap="round"/>
<path d="M1240.5 1363.2V1690.8L520.7 2283.5L520.8 1363.2H1240.5Z" fill="#D0F0E4"/>
<path d="M1168.7 1457.2V1681.1C1168.7 1701.9 1151.9 1718.7 1131.1 1718.7H628.1C607.3 1718.7 590.5 1701.9 590.5 1681.1V1457.2C590.5 1436.4 607.3 1419.6 628.1 1419.6H1131.1C1151.9 1419.6 1168.7 1436.4 1168.7 1457.2Z" stroke="#3FB1B5" stroke-width="6" stroke-miterlimit="10" stroke-linecap="round"/>
<path d="M1007.5 1888.3H759.9L749.6 1817.4H997.3L1007.5 1888.3Z" fill="#FFCF2D"/>
<path d="M1139.6 1776.5C1108.7 1776.5 1083.7 1801.5 1083.7 1832.4V1888.3H873V1832.4C873 1801.5 898 1776.5 928.9 1776.5H1139.6Z" fill="white" stroke="#3FB1B5" stroke-width="6" stroke-miterlimit="10" stroke-linecap="round"/>
<path d="M1192.1 1817.4H981.4C974.9 1793.8 953.2 1776.5 927.5 1776.5H1138.2C1163.9 1776.5 1185.5 1793.8 1192.1 1817.4Z" fill="white" stroke="#3FB1B5" stroke-width="6" stroke-miterlimit="10" stroke-linecap="round"/>
<path d="M1168.7 1925.9V2149.8C1168.7 2170.6 1151.9 2187.4 1131.1 2187.4H628.1C607.3 2187.4 590.5 2170.6 590.5 2149.8V1925.9C590.5 1905.1 607.3 1888.3 628.1 1888.3H1131.1C1151.9 1888.3 1168.7 1905.1 1168.7 1925.9Z" stroke="#3FB1B5" stroke-width="6" stroke-miterlimit="10" stroke-linecap="round"/>
<path d="M776.6 1564.7C776.6 1546.9 791 1532.4 808.9 1532.4H950.4C968.2 1532.4 982.7 1546.8 982.7 1564.7" stroke="#3FB1B5" stroke-width="6" stroke-miterlimit="10" stroke-linecap="round"/>
<path d="M776.6 2033.4C776.6 2015.6 791 2001.1 808.9 2001.1H950.4C968.2 2001.1 982.7 2015.5 982.7 2033.4" stroke="#3FB1B5" stroke-width="6" stroke-miterlimit="10" stroke-linecap="round"/>
<path d="M2932.7 1363.2H2858.4V2600.5H2932.7V1363.2Z" fill="white" stroke="#3FB1B5" stroke-width="6" stroke-miterlimit="10" stroke-linecap="round"/>
<path d="M1670 2600.5H3220.6" stroke="#3FB1B5" stroke-width="6" stroke-miterlimit="10" stroke-linecap="round"/>
<path d="M731.7 1176H686.8C686.8 1176 622.7 908.9 566.4 900.2C510.1 891.5 507.2 994.3 507.2 994.3C507.2 994.3 508.2 838 648.9 859.4C789.7 880.8 731.7 1176 731.7 1176Z" fill="white" stroke="#3FB1B5" stroke-width="6" stroke-miterlimit="10" stroke-linecap="round"/>
<path d="M577.9 866.2C577.9 866.2 706.2 818.8 712 1172" stroke="#3FB1B5" stroke-width="6" stroke-miterlimit="10" stroke-linecap="round"/>
<path d="M854 1172H643.1V1343.7H854V1172Z" fill="#FE5244"/>
<path d="M898.4 1257.9C885 1263.7 869 1263 854.1 1256.5C843.1 1251.7 832.7 1243.8 824.3 1233C812.7 1218 804.9 1197.5 804.9 1172C804.9 1110.2 755.7 1071.4 735.5 1153.2C734.1 1158.9 732.8 1165.1 731.7 1172V1171.8V1171.4C731.7 1171.2 731.7 1170.9 731.8 1170.6V1170.2C732.2 1165.1 733.7 1150 738.3 1131.8C741.7 1118.3 746.8 1103.3 754.4 1089.4C758.2 1082.5 762.6 1075.9 767.8 1070C781.2 1054.6 799.6 1043.8 824.7 1043.8C870.9 1043.8 904.7 1098.2 917.6 1152.4C928.9 1199.5 924.3 1246.6 898.4 1257.9Z" fill="white" stroke="#3FB1B5" stroke-width="6" stroke-miterlimit="10" stroke-linecap="round"/>
<path d="M767.9 1070C767.9 1070 860.5 1004.1 887.7 1259.8" stroke="#3FB1B5" stroke-width="6" stroke-miterlimit="10" stroke-linecap="round"/>
<path d="M504.2 994.3C504.2 1010.8 502.3 1073.9 562.5 1076.8C622.7 1079.7 628.7 988.8 628.7 988.8C628.7 988.8 599.1 908.4 566.4 900.2C511.1 886.3 504.2 994.3 504.2 994.3Z" fill="#3FB1B5"/>
<path d="M804.9 1172H731.7C748.6 1066.1 804.9 1105.9 804.9 1172Z" fill="#3FB1B5"/>
<path opacity="0.4" d="M2048 394.2V1054.3C2048 1089.8 2019.2 1118.5 1983.8 1118.5H1228.3C1180.9 1183.8 1083.2 1184.1 1035.4 1118.5L1035.3 1118.4C1016.3 1117.1 999.5 1107.4 988.7 1093.1L1006.1 1078.1L1450.1 694.9L1872.9 330H1983.8C2019.2 330 2048 358.8 2048 394.2Z" fill="white"/>
<path opacity="0.4" d="M898.4 1260.9C885.1 1266.9 869 1266 854.1 1259.5V1343.7H698.4L824.4 1235L854.2 1209.3L876.9 1189.7L920.8 1152.4C933.6 1207 926.5 1248 898.4 1260.9Z" fill="white"/>
<path d="M78.9 424C77.7 424 76.5 423.2 76.1 422C75.6 420.4 76.4 418.7 77.9 418.2L87.3 414.9C88.9 414.4 90.6 415.2 91.1 416.7C91.6 418.3 90.8 420 89.3 420.5L79.9 423.8C79.5 423.9 79.2 424 78.9 424ZM102.5 415.8C101.3 415.8 100.1 415 99.7 413.8C99.2 412.2 100 410.5 101.5 410L110.9 406.7C112.5 406.2 114.2 407 114.7 408.5C115.2 410.1 114.4 411.8 112.9 412.3L103.5 415.6C103.2 415.7 102.8 415.8 102.5 415.8ZM126.1 407.5C124.9 407.5 123.7 406.7 123.3 405.5C122.8 403.9 123.6 402.2 125.1 401.7L134.5 398.4C136.1 397.9 137.8 398.7 138.3 400.2C138.8 401.8 138 403.5 136.5 404L127.1 407.3C126.8 407.5 126.4 407.5 126.1 407.5ZM149.7 399.3C148.5 399.3 147.3 398.5 146.9 397.3C146.4 395.7 147.2 394 148.7 393.5L158.1 390.2C159.7 389.7 161.4 390.5 161.9 392C162.4 393.6 161.6 395.3 160.1 395.8L150.7 399.1C150.4 399.3 150.1 399.3 149.7 399.3ZM173.3 391.1C172.1 391.1 170.9 390.3 170.5 389.1C170 387.5 170.8 385.8 172.3 385.3L181.7 382C183.3 381.5 185 382.3 185.5 383.8C186 385.4 185.2 387.1 183.7 387.6L174.3 390.9C174 391.1 173.7 391.1 173.3 391.1ZM197 382.9C195.8 382.9 194.6 382.1 194.2 380.9C193.7 379.3 194.5 377.6 196 377.1L205.4 373.8C207 373.3 208.7 374.1 209.2 375.6C209.7 377.2 208.9 378.9 207.4 379.4L198 382.7C197.6 382.9 197.3 382.9 197 382.9ZM220.6 374.7C219.4 374.7 218.2 373.9 217.8 372.7C217.3 371.1 218.1 369.4 219.6 368.9L229 365.6C230.6 365.1 232.3 365.9 232.8 367.4C233.3 369 232.5 370.7 231 371.2L221.6 374.5C221.2 374.6 220.9 374.7 220.6 374.7ZM244.2 366.5C243 366.5 241.8 365.7 241.4 364.5C240.9 362.9 241.7 361.2 243.2 360.7L252.6 357.4C254.2 356.9 255.9 357.7 256.4 359.2C256.9 360.8 256.1 362.5 254.6 363L245.2 366.3C244.8 366.4 244.5 366.5 244.2 366.5ZM267.8 358.3C266.6 358.3 265.4 357.5 265 356.3C264.5 354.7 265.3 353 266.8 352.5L276.2 349.2C277.8 348.7 279.5 349.5 280 351C280.5 352.6 279.7 354.3 278.2 354.8L268.8 358.1C268.5 358.2 268.1 358.3 267.8 358.3ZM291.4 350.1C290.2 350.1 289 349.3 288.6 348.1C288.1 346.5 288.9 344.8 290.4 344.3L299.8 341C301.4 340.5 303.1 341.3 303.6 342.8C304.1 344.4 303.3 346.1 301.8 346.6L292.4 349.9C292.1 350 291.7 350.1 291.4 350.1ZM315 341.9C313.8 341.9 312.6 341.1 312.2 339.9C311.7 338.3 312.5 336.6 314 336.1L323.4 332.8C325 332.3 326.7 333.1 327.2 334.6C327.7 336.2 326.9 337.9 325.4 338.4L316 341.7C315.7 341.8 315.3 341.9 315 341.9ZM338.6 333.6C337.4 333.6 336.2 332.8 335.8 331.6C335.3 330 336.1 328.3 337.6 327.8L347 324.5C348.6 324 350.3 324.8 350.8 326.3C351.3 327.9 350.5 329.6 349 330.1L339.6 333.4C339.3 333.6 339 333.6 338.6 333.6ZM362.2 325.4C361 325.4 359.8 324.6 359.4 323.4C358.9 321.8 359.7 320.1 361.2 319.6L370.6 316.3C372.2 315.8 373.9 316.6 374.4 318.1C374.9 319.7 374.1 321.4 372.6 321.9L363.2 325.2C362.9 325.4 362.6 325.4 362.2 325.4ZM385.9 317.2C384.7 317.2 383.5 316.4 383.1 315.2C382.6 313.6 383.4 311.9 384.9 311.4L394.3 308.1C395.9 307.6 397.6 308.4 398.1 309.9C398.6 311.5 397.8 313.2 396.3 313.7L386.9 317C386.5 317.2 386.2 317.2 385.9 317.2ZM409.5 309C408.3 309 407.1 308.2 406.7 307C406.2 305.4 407 303.7 408.5 303.2L417.9 299.9C419.5 299.4 421.2 300.2 421.7 301.7C422.2 303.3 421.4 305 419.9 305.5L410.5 308.8C410.1 309 409.8 309 409.5 309ZM433.1 300.8C431.9 300.8 430.7 300 430.3 298.8C429.8 297.2 430.6 295.5 432.1 295L441.5 291.7C443.1 291.2 444.8 292 445.3 293.5C445.8 295.1 445 296.8 443.5 297.3L434.1 300.6C433.7 300.8 433.4 300.8 433.1 300.8ZM456.7 292.6C455.5 292.6 454.3 291.8 453.9 290.6C453.4 289 454.2 287.3 455.7 286.8L465.1 283.5C466.7 283 468.4 283.8 468.9 285.3C469.4 286.9 468.6 288.6 467.1 289.1L457.7 292.4C457.4 292.5 457 292.6 456.7 292.6ZM480.3 284.4C479.1 284.4 477.9 283.6 477.5 282.4C477 280.8 477.8 279.1 479.3 278.6L488.7 275.3C490.3 274.8 492 275.6 492.5 277.1C493 278.7 492.2 280.4 490.7 280.9L481.3 284.2C481 284.3 480.6 284.4 480.3 284.4Z" fill="#FFCF2D"/>
<path d="M185.3 424C183.6 424 182.3 422.7 182.3 421C182.3 393.9 173.9 374.2 157.2 362.6C144.7 353.9 132 353.1 131.9 353.1C130.2 353 129 351.6 129.1 349.9C129.2 348.2 130.6 347 132.2 347.1C132.8 347.1 146.5 347.9 160.4 357.5C183.5 373.5 188.3 400.9 188.3 421C188.3 422.6 187 424 185.3 424Z" fill="#3FB1B5"/>
<path d="M663.1 424H78.9C77.8 424 76.7 423.4 76.2 422.3C75.7 421.3 75.7999 420.1 76.4999 419.2L313.9 102.7C314.4 102 315.2 101.6 316 101.5C316.8 101.4 317.7 101.7 318.3 102.3L665.2 418.8C666.1 419.6 666.4 420.9 666 422.1C665.5 423.2 664.4 424 663.1 424ZM84.9 418H655.4L316.7 108.9L84.9 418Z" fill="#3FB1B5"/>
<path d="M26.4 444.8C12.1 444.8 0.5 433.2 0.5 418.9C0.5 404.6 12.1 393 26.4 393C40.7 393 52.3 404.6 52.3 418.9C52.3 433.2 40.7 444.8 26.4 444.8ZM26.4 398.9C15.4 398.9 6.5 407.8 6.5 418.8C6.5 429.8 15.4 438.7 26.4 438.7C37.4 438.7 46.3 429.8 46.3 418.8C46.3 407.8 37.4 398.9 26.4 398.9Z" fill="#FFCF2D"/>
<path d="M52.3 418.9H46.3V441.8H52.3V418.9Z" fill="#FFCF2D"/>
<path d="M334 82.9999C319.7 82.9999 308.1 71.3999 308.1 57.0999C308.1 42.7999 319.7 31.2 334 31.2C348.3 31.2 359.9 42.7999 359.9 57.0999C359.9 71.2999 348.3 82.9999 334 82.9999ZM334 37.0999C323 37.0999 314.1 45.9999 314.1 56.9999C314.1 67.9999 323 76.9999 334 76.9999C345 76.9999 353.9 68.0999 353.9 57.0999C353.9 46.0999 345 37.0999 334 37.0999Z" fill="#FFCF2D"/>
<path d="M313.9 17H307.9V79.9H313.9V17Z" fill="#FFCF2D"/>
<path d="M709.8 444.2C695.5 444.2 683.9 432.6 683.9 418.3C683.9 404 695.5 392.4 709.8 392.4V398.4C698.8 398.4 689.9 407.3 689.9 418.3C689.9 429.3 698.8 438.2 709.8 438.2V444.2Z" fill="#FFCF2D"/>
<path d="M2224.3 1705.2V2261.8H2095.7L2013.8 2033.1L1896.5 1705.2H2224.3Z" fill="#A0505A"/>
<path d="M1896.5 1705.2H2224.3V1883.9L1935.5 1814.1L1896.5 1705.2Z" fill="#73325A"/>
<path d="M2224.3 2033.1V2261.8H2095.7L2013.8 2033.1C2013.8 2033.1 2080.1 2069.7 2224.3 2033.1Z" stroke="white" stroke-width="6" stroke-miterlimit="10" stroke-linecap="round"/>
<path d="M2080.7 2086.8C2088.76 2086.8 2095.3 2080.26 2095.3 2072.2C2095.3 2064.14 2088.76 2057.6 2080.7 2057.6C2072.64 2057.6 2066.1 2064.14 2066.1 2072.2C2066.1 2080.26 2072.64 2086.8 2080.7 2086.8Z" stroke="white" stroke-width="6" stroke-miterlimit="10" stroke-linecap="round"/>
<path d="M2150.3 2133.9C2158.36 2133.9 2164.9 2127.36 2164.9 2119.3C2164.9 2111.24 2158.36 2104.7 2150.3 2104.7C2142.24 2104.7 2135.7 2111.24 2135.7 2119.3C2135.7 2127.36 2142.24 2133.9 2150.3 2133.9Z" stroke="white" stroke-width="6" stroke-miterlimit="10" stroke-linecap="round"/>
<path d="M2202.1 2081.6C2210.16 2081.6 2216.7 2075.06 2216.7 2067C2216.7 2058.94 2210.16 2052.4 2202.1 2052.4C2194.04 2052.4 2187.5 2058.94 2187.5 2067C2187.5 2075.06 2194.04 2081.6 2202.1 2081.6Z" stroke="white" stroke-width="6" stroke-miterlimit="10" stroke-linecap="round"/>
<path d="M2181.6 2188.7C2189.66 2188.7 2196.2 2182.16 2196.2 2174.1C2196.2 2166.04 2189.66 2159.5 2181.6 2159.5C2173.54 2159.5 2167 2166.04 2167 2174.1C2167 2182.16 2173.54 2188.7 2181.6 2188.7Z" stroke="white" stroke-width="6" stroke-miterlimit="10" stroke-linecap="round"/>
<path d="M2095.3 2162.1C2103.36 2162.1 2109.9 2155.56 2109.9 2147.5C2109.9 2139.44 2103.36 2132.9 2095.3 2132.9C2087.24 2132.9 2080.7 2139.44 2080.7 2147.5C2080.7 2155.56 2087.24 2162.1 2095.3 2162.1Z" stroke="white" stroke-width="6" stroke-miterlimit="10" stroke-linecap="round"/>
<path d="M2119.1 2242.1C2127.16 2242.1 2133.7 2235.56 2133.7 2227.5C2133.7 2219.44 2127.16 2212.9 2119.1 2212.9C2111.04 2212.9 2104.5 2219.44 2104.5 2227.5C2104.5 2235.56 2111.04 2242.1 2119.1 2242.1Z" stroke="white" stroke-width="6" stroke-miterlimit="10" stroke-linecap="round"/>
<path d="M2285.1 2365.6L2196.9 2548.7C2184.4 2578.2 2155.5 2597.4 2123.4 2597.4H2010.9C1982.1 2597.4 1964.6 2568.2 1975.6 2541.6L2088.7 2268.8C2095 2252.2 2106.1 2238.4 2120 2228.7C2134 2219 2150.8 2213.5 2168.5 2213.5C2193.1 2213.5 2217.5 2230.2 2233.7 2248.7L2272.9 2291C2291 2311.6 2295.7 2340.5 2285.1 2365.6Z" fill="#66B0F0"/>
<path d="M2285.1 2365.6L2196.9 2548.7C2184.4 2578.2 2155.5 2597.4 2123.4 2597.4H2003.8C1992.7 2597.4 1986.4 2590.5 1982.7 2581H2009.3C2041.4 2581 2070.3 2561.8 2082.8 2532.3L2184.5 2320.2C2194 2300.4 2214.1 2287.7 2236.1 2287.7C2264.8 2287.7 2286.6 2308.7 2290.6 2335.3C2291 2345.5 2289.2 2355.8 2285.1 2365.6Z" fill="white" stroke="#66B0F0" stroke-width="6" stroke-miterlimit="10" stroke-linejoin="round"/>
<path d="M2264.8 2282.2C2254.2 2276.4 2241.4 2272.2 2230.2 2272.2C2208.7 2272.2 2188.8 2284.7 2179.5 2304.1L2074.2 2523.7C2060.8 2555.4 2029.8 2575.9 1995.3 2575.9H1975.9C1974.9 2574 1974.2 2572 1973.5 2569.9H1995.3C2027.4 2569.9 2056.2 2550.8 2068.7 2521.3L2068.8 2521.2L2174.2 2301.5C2184.5 2280 2206.5 2266.2 2230.3 2266.2C2237.9 2266.2 2247 2268.7 2254.8 2271.4L2264.8 2282.2Z" fill="white"/>
<path d="M1896.5 1705.2L1871.4 2033.1L1860.2 2180C1860.2 2180 1787.1 2261.4 1703.9 2211.2L1665.4 2033.2L1577.3 1625.9C1553.5 1515.8 1628.7 1408.7 1740.4 1393.8L1896.5 1705.2Z" fill="#A0505A"/>
<path d="M1871.4 2033.1L1860.2 2184C1860.2 2184 1787.1 2265.4 1703.9 2215.2L1665.4 2033.2C1762.1 2062.2 1871.4 2033.1 1871.4 2033.1Z" stroke="white" stroke-width="6" stroke-miterlimit="10" stroke-linecap="round"/>
<path d="M1756.5 2123.8C1764.56 2123.8 1771.1 2117.26 1771.1 2109.2C1771.1 2101.14 1764.56 2094.6 1756.5 2094.6C1748.44 2094.6 1741.9 2101.14 1741.9 2109.2C1741.9 2117.26 1748.44 2123.8 1756.5 2123.8Z" stroke="white" stroke-width="6" stroke-miterlimit="10" stroke-linecap="round"/>
<path d="M1849.3 2101.4C1857.36 2101.4 1863.9 2094.86 1863.9 2086.8C1863.9 2078.74 1857.36 2072.2 1849.3 2072.2C1841.24 2072.2 1834.7 2078.74 1834.7 2086.8C1834.7 2094.86 1841.24 2101.4 1849.3 2101.4Z" stroke="white" stroke-width="6" stroke-miterlimit="10" stroke-linecap="round"/>
<path d="M1700.5 2081.6C1708.56 2081.6 1715.1 2075.06 1715.1 2067C1715.1 2058.94 1708.56 2052.4 1700.5 2052.4C1692.44 2052.4 1685.9 2058.94 1685.9 2067C1685.9 2075.06 1692.44 2081.6 1700.5 2081.6Z" stroke="white" stroke-width="6" stroke-miterlimit="10" stroke-linecap="round"/>
<path d="M1741.9 2203.3C1749.96 2203.3 1756.5 2196.76 1756.5 2188.7C1756.5 2180.64 1749.96 2174.1 1741.9 2174.1C1733.84 2174.1 1727.3 2180.64 1727.3 2188.7C1727.3 2196.76 1733.84 2203.3 1741.9 2203.3Z" stroke="white" stroke-width="6" stroke-miterlimit="10" stroke-linecap="round"/>
<path d="M1810 2174.1C1818.06 2174.1 1824.6 2167.56 1824.6 2159.5C1824.6 2151.44 1818.06 2144.9 1810 2144.9C1801.94 2144.9 1795.4 2151.44 1795.4 2159.5C1795.4 2167.56 1801.94 2174.1 1810 2174.1Z" stroke="white" stroke-width="6" stroke-miterlimit="10" stroke-linecap="round"/>
<path d="M1956.6 2215L1860.2 2600.5H1829.8C1828.4 2600.5 1827.1 2600.4 1825.7 2600.3C1802.7 2598.2 1783.3 2578.8 1778.4 2555.9L1703.8 2211C1787 2261.3 1860.2 2179.9 1860.2 2179.9L1956.6 2215Z" fill="#66B0F0"/>
<path d="M1961.5 2412.8C1981.8 2305.6 1987.4 2223.7 1952.4 2217.1C1917.4 2210.5 1855.1 2281.6 1834.8 2388.8C1814.5 2496 1825.1 2590.8 1860.1 2597.4C1895.1 2604.1 1941.2 2520.1 1961.5 2412.8Z" fill="white" stroke="#66B0F0" stroke-width="6" stroke-miterlimit="10" stroke-linejoin="round"/>
<path d="M1820.8 2387.1C1810.3 2442.7 1807.2 2496.4 1812.2 2538.4C1815.8 2568.6 1823.4 2590.1 1833.8 2600.5H1829.8C1828.4 2600.5 1827.1 2600.4 1825.7 2600.3C1816.3 2587.9 1809.6 2567.1 1806.2 2539.1C1801.1 2496.6 1804.2 2442.2 1814.9 2386C1825 2332.8 1845.4 2282.9 1872.5 2245.4C1888.7 2223 1905.7 2207.3 1921.2 2200.2L1930.2 2203.2C1894.5 2213.8 1840.3 2284.2 1820.8 2387.1Z" fill="white"/>
<path d="M1740.4 1393.7L2196.6 1346.7L2652.6 1474.6L2648.7 1535.2C2642.5 1630.8 2560.1 1705.2 2464.3 1705.2H1896.6L1740.4 1393.7Z" fill="#FE5244"/>
<path d="M2626.6 1470.2C2626.6 1557 2540 1663.2 2444.2 1663.2H1876.5" stroke="white" stroke-width="6" stroke-miterlimit="10" stroke-linecap="round" stroke-linejoin="round"/>
<path d="M2572.5 1452.9C2558.3 1530.4 2482.5 1613.2 2399.5 1613.2H1853.5" stroke="white" stroke-width="6" stroke-miterlimit="10" stroke-linecap="round" stroke-linejoin="round"/>
<path d="M2511 1434.5C2487 1500.3 2421.9 1562.2 2351.4 1562.2H1824.5" stroke="white" stroke-width="6" stroke-miterlimit="10" stroke-linecap="round" stroke-linejoin="round"/>
<path d="M2463.7 1421.6C2432.2 1469.5 2380.5 1507.2 2325.4 1507.2H1798.5" stroke="white" stroke-width="6" stroke-miterlimit="10" stroke-linecap="round" stroke-linejoin="round"/>
<path d="M2410.9 1406.8C2380.6 1437.3 2341.4 1457.2 2300.4 1457.2H1773.5" stroke="white" stroke-width="6" stroke-miterlimit="10" stroke-linecap="round" stroke-linejoin="round"/>
<path d="M2342.2 1386.9C2320.8 1399 2297.4 1406.2 2273.4 1406.2H1746.5" stroke="white" stroke-width="6" stroke-miterlimit="10" stroke-linecap="round" stroke-linejoin="round"/>
<path d="M1895.5 1705.2L1739.4 1393.7" stroke="white" stroke-width="6" stroke-miterlimit="10" stroke-linecap="round" stroke-linejoin="round"/>
<path d="M2677.6 1057.2C2634.6 1069.4 2592.3 1065.8 2587.8 1052.7C2583.6 1040.2 2602.6 1018.8 2641.1 1004.6C2643 1003.9 2645 1003.2 2647 1002.5C2658.6 998.6 2670.2 996.1 2681.1 994.8C2713.4 990.7 2739.7 996.5 2743 1006.3C2747.5 1019.4 2723.1 1044.3 2677.6 1057.2Z" fill="white" stroke="#3FB1B5" stroke-width="6" stroke-miterlimit="10" stroke-linejoin="round"/>
<path d="M2650.4 1348.8H2633.9L2590.6 1056.5V1056.3L2589.5 1049C2591.6 1035.7 2612.4 1016.9 2649.1 1004.7C2667.4 998.6 2685.6 995.9 2701.1 995.6L2716.9 1038.9L2718.4 1043L2768.4 1180.1C2798.4 1262 2737.7 1348.8 2650.4 1348.8Z" fill="#A0505A"/>
<path d="M2717.9 1042C2707.4 1048.6 2693.8 1054.7 2677.6 1059.3C2640.4 1069.8 2602.7 1065.5 2590.6 1056.5V1056.3L2589.5 1049C2591.6 1035.7 2612.4 1016.9 2649.1 1004.7C2667.4 998.6 2685.6 995.9 2701.1 995.6L2717.9 1042Z" fill="#73325A"/>
<path d="M2114.8 1108.3L2062.3 1238.9C2036.4 1303.4 1973.8 1345.7 1904.2 1345.7H1198.5V1281.1C1198.5 1265.5 1208.1 1251.5 1222.7 1246L1295.2 1218.5C1301.8 1216 1308.7 1214.7 1315.7 1214.7H1398L1863.8 1167.7L1944.2 983.6L2114.8 1108.3Z" fill="#A0505A"/>
<path d="M1274.5 1258.2L1219.8 1278.9C1208.8 1283.1 1201.5 1293.6 1201.5 1305.4" stroke="#73325A" stroke-width="6" stroke-miterlimit="10" stroke-linecap="round"/>
<path d="M1274.5 1291.2L1219.8 1311.9C1208.8 1316.1 1201.5 1326.6 1201.5 1338.4" stroke="#73325A" stroke-width="6" stroke-miterlimit="10" stroke-linecap="round"/>
<path d="M1274.5 1323L1219.8 1342.7" stroke="#73325A" stroke-width="6" stroke-miterlimit="10" stroke-linecap="round"/>
<path d="M1268.8 1229.6C1268.8 1229.6 1320 1098.9 1336.4 1101.1C1352.8 1103.3 1291 1221.2 1291 1221.2L1268.8 1229.6Z" fill="#FE5244"/>
<path d="M1944.2 983.7L1932.4 1010.6L2083.5 1186.1L2114.8 1108.3L1944.2 983.7Z" fill="#73325A"/>
<path d="M2590.6 1056.6L2652.6 1474.6L2196.7 1346.7L2114.8 1108.2L1903.4 953.7L1977.6 865.3C2043.8 786.4 2141.5 740.8 2244.5 740.8H2391C2518.4 740.8 2635.7 810.4 2696.8 922.2L2744.3 1004.4C2744.3 1004.4 2730 983.4 2652.9 1004.5C2585 1023.2 2590.6 1056.6 2590.6 1056.6Z" fill="#3FB1B5"/>
<path d="M2114.8 1106.3L2138.5 1003.5" stroke="white" stroke-width="6" stroke-miterlimit="10" stroke-linecap="round" stroke-linejoin="round"/>
<path d="M2641.1 1377L2564 897.7" stroke="white" stroke-width="6" stroke-miterlimit="10" stroke-linecap="round" stroke-linejoin="round"/>
<path d="M2196.6 1344.8L2651.6 1474.6" stroke="white" stroke-width="6" stroke-miterlimit="10" stroke-linecap="round" stroke-linejoin="round"/>
<path d="M2221.2 674V741.2L2339.8 740.2V621.6L2221.2 674Z" fill="#A0505A"/>
<path d="M2349.4 600.9V602.7C2349.4 620.7 2335.8 635.3 2317.8 635.3H2310.8C2306.3 653.1 2266.3 673.9 2237.9 673.9H2204.8C2168.6 673.9 2140.9 641.4 2146.8 605.6L2148.4 595.9L2138.6 590.4C2133 587.2 2131.4 579.9 2135.3 574.7L2156.5 546.7L2161.1 519.1C2164.8 496.4 2179.7 477.9 2199.5 468.8C2207.3 556.7 2284.9 567.1 2305.4 568.3H2316.8C2334.8 568.3 2349.4 582.9 2349.4 600.9Z" fill="#A0505A"/>
<path d="M2296.9 609.5C2296.9 595.3 2308.4 583.8 2322.6 583.8" stroke="#73325A" stroke-width="6" stroke-miterlimit="10" stroke-linecap="round"/>
<path d="M2188.5 569.2C2191.32 569.2 2193.6 563.917 2193.6 557.4C2193.6 550.883 2191.32 545.6 2188.5 545.6C2185.68 545.6 2183.4 550.883 2183.4 557.4C2183.4 563.917 2185.68 569.2 2188.5 569.2Z" fill="#73325A"/>
<path d="M2180.7 520.9C2180.7 520.9 2194.8 519.5 2209.3 539.5" stroke="#73325A" stroke-width="6" stroke-miterlimit="10" stroke-linecap="round"/>
<path d="M2305.4 568.3H2316.8C2334.8 568.3 2349.4 582.9 2349.4 600.9V602.7C2349.4 620.7 2335.8 635.3 2317.8 635.3L2310.1 640.7C2277.7 661.5 2232.9 743.3 2243.9 801.2C2256.3 866.3 2313 880.8 2365.4 870.8C2417.8 860.8 2456 830.3 2443.6 765.1C2442.2 757.4 2439.9 749.7 2437 742.1C2437.9 742.4 2438.7 742.7 2439.6 743C2502.6 760.2 2576.6 762.2 2597 713C2617.4 663.8 2612.8 615.1 2551.5 589.7C2515.9 574.9 2467.5 575 2430 585.2C2448.9 519.5 2415.3 446.4 2353.6 439.1C2256.7 427.6 2201.1 467.6 2199.6 468.7C2199.5 480.3 2207.4 562.6 2305.4 568.3Z" fill="#73325A"/>
<path d="M2432.5 582.9C2424.6 608.6 2408.3 636.1 2381.8 654.8C2381.8 654.8 2428.6 685.7 2439.6 743.1" stroke="white" stroke-width="6" stroke-miterlimit="10" stroke-linecap="round" stroke-linejoin="round"/>
<path d="M2459.7 580.7H2433.2V554.2C2433.2 540.3 2444.4 529.1 2458.3 529.1H2459.7C2473.6 529.1 2484.8 540.3 2484.8 554.2V555.6C2484.9 569.4 2473.6 580.7 2459.7 580.7Z" stroke="#FE5244" stroke-width="6" stroke-miterlimit="10" stroke-linejoin="round"/>
<path d="M2450 607.9L2433 580.9L2460 563.9C2473.5 555.4 2491.4 559.4 2499.9 572.9L2501.5 575.4C2510 588.9 2506 606.8 2492.5 615.3L2490 616.9C2476.3 625.4 2458.5 621.4 2450 607.9Z" stroke="#FE5244" stroke-width="6" stroke-miterlimit="10" stroke-linejoin="round"/>
<path d="M2293.4 656.1L2312.3 638L2330.8 658.9C2339.9 669.4 2338.7 685.3 2328.2 694.3L2327.1 695.2C2316.6 704.3 2300.7 703.1 2291.7 692.6L2290.8 691.5C2281.7 681.1 2282.9 665.2 2293.4 656.1Z" stroke="#FE5244" stroke-width="6" stroke-miterlimit="10" stroke-linejoin="round"/>
<path d="M2321 669.1L2312.5 638.4L2343.2 629.9C2358.6 625.6 2374.5 634.6 2378.8 650L2379.6 652.9C2383.9 668.3 2374.9 684.2 2359.5 688.5L2356.6 689.3C2341.2 693.5 2325.3 684.4 2321 669.1Z" stroke="#FE5244" stroke-width="6" stroke-miterlimit="10" stroke-linejoin="round"/>
<path d="M2048.1 1782.1L1873.9 2597.4" stroke="#FFCF2D" stroke-width="6" stroke-miterlimit="10" stroke-linecap="round"/>
<path d="M2493.9 1782.1L2668.1 2597.4" stroke="#FFCF2D" stroke-width="6" stroke-miterlimit="10" stroke-linecap="round"/>
<path d="M1912.5 2416.4H2627.1" stroke="#FFCF2D" stroke-width="6" stroke-miterlimit="10" stroke-linecap="round"/>
<path d="M2631 1782.1H1910.9C1901.8 1782.1 1894.4 1774.7 1894.4 1765.6V1721.7C1894.4 1712.6 1901.8 1705.2 1910.9 1705.2H2631C2640.1 1705.2 2647.5 1712.6 2647.5 1721.7V1765.6C2647.5 1774.7 2640.1 1782.1 2631 1782.1Z" fill="white" stroke="#66B0F0" stroke-width="6" stroke-miterlimit="10" stroke-linejoin="round"/>
</svg>
